<?xml version="1.0" encoding="utf-8"?>
<!-- Generator: Adobe Illustrator 18.1.1, SVG Export Plug-In . SVG Version: 6.00 Build 0)  -->
<svg version="1.1" id="Layer_1" xmlns="http://www.w3.org/2000/svg" xmlns:xlink="http://www.w3.org/1999/xlink" x="0px" y="0px"
	 viewBox="0 0 9.5 17.8" enable-background="new 0 0 9.5 17.8" xml:space="preserve">
<path fill="#FFFFFF" d="M8,0H1.5C0.7,0,0,0.7,0,1.5v14.8c0,0.8,0.7,1.5,1.5,1.5H8c0.8,0,1.5-0.7,1.5-1.5V1.5C9.5,0.7,8.9,0,8,0z
	 M3.9,1.2h1.8C5.8,1.2,6,1.3,6,1.5c0,0.2-0.1,0.3-0.3,0.3H3.9c-0.2,0-0.3-0.1-0.3-0.3C3.6,1.3,3.7,1.2,3.9,1.2z M4.8,17.2
	c-0.5,0-0.9-0.4-0.9-0.9c0-0.5,0.4-0.9,0.9-0.9c0.5,0,0.9,0.4,0.9,0.9C5.7,16.8,5.3,17.2,4.8,17.2z M8.9,14.8H0.6V3h8.3V14.8z"/>
</svg>
